<svg width="30" height="30" viewBox="0 0 30 30" fill="none" xmlns="http://www.w3.org/2000/svg">
<path d="M19.3661 18.1339C19.8543 18.622 20.6457 18.622 21.1339 18.1339C21.622 17.6457 21.622 16.8543 21.1339 16.3661L19.3661 18.1339ZM15 12L15.8839 11.1161C15.3957 10.628 14.6043 10.628 14.1161 11.1161L15 12ZM8.86612 16.3661C8.37796 16.8543 8.37796 17.6457 8.86612 18.1339C9.35427 18.622 10.1457 18.622 10.6339 18.1339L8.86612 16.3661ZM25.75 15C25.75 20.9371 20.9371 25.75 15 25.75V28.25C22.3178 28.25 28.25 22.3178 28.25 15H25.75ZM15 25.75C9.06294 25.75 4.25 20.9371 4.25 15H1.75C1.75 22.3178 7.68223 28.25 15 28.25V25.75ZM4.25 15C4.25 9.06294 9.06294 4.25 15 4.25V1.75C7.68223 1.75 1.75 7.68223 1.75 15H4.25ZM15 4.25C20.9371 4.25 25.75 9.06294 25.75 15H28.25C28.25 7.68223 22.3178 1.75 15 1.75V4.25ZM21.1339 16.3661L15.8839 11.1161L14.1161 12.8839L19.3661 18.1339L21.1339 16.3661ZM14.1161 11.1161L8.86612 16.3661L10.6339 18.1339L15.8839 12.8839L14.1161 11.1161Z" fill="black"/>
</svg>
